<?xml version="1.0" standalone="no"?>
<!DOCTYPE svg PUBLIC "-//W3C//DTD SVG 20010904//EN"
 "http://www.w3.org/TR/2001/REC-SVG-20010904/DTD/svg10.dtd">
<svg version="1.0" xmlns="http://www.w3.org/2000/svg"
 width="700.000000pt" height="700.000000pt" viewBox="0 0 700.000000 700.000000"
 preserveAspectRatio="xMidYMid meet">
<metadata>
Created by potrace 1.11, written by Peter Selinger 2001-2013
</metadata>
<g transform="translate(0.000000,700.000000) scale(0.100000,-0.100000)"
fill="#000000" stroke="none">
<path d="M3273 6572 c-50 -2 -63 -6 -63 -19 0 -24 -79 -405 -89 -428 -5 -12
-30 -28 -61 -38 -29 -11 -82 -33 -116 -49 l-63 -30 -188 139 c-103 77 -194
143 -200 147 -16 9 -436 -412 -426 -428 4 -6 41 -58 83 -116 41 -58 102 -142
133 -187 l58 -83 -40 -89 c-22 -49 -43 -101 -47 -115 -3 -14 -11 -29 -17 -34
-7 -5 -61 -19 -122 -31 -60 -12 -121 -24 -135 -27 -14 -3 -62 -13 -107 -22
l-82 -16 -3 -110 c-2 -61 -2 -126 0 -143 l3 -33 100 0 99 0 0 60 c0 54 2 60
23 65 12 3 65 14 117 25 169 35 245 51 261 55 9 3 22 33 34 83 11 46 46 130
87 211 l68 134 -107 151 c-58 83 -109 153 -112 156 -3 3 -13 18 -20 33 -15 28
-14 28 69 112 47 47 89 85 94 85 5 0 85 -57 179 -126 93 -69 176 -128 184
-131 7 -3 21 1 31 10 34 29 229 118 310 140 49 13 84 28 87 37 5 16 60 277 69
325 3 17 8 42 12 58 l6 27 119 0 c115 0 119 -1 124 -22 2 -13 18 -90 35 -173
48 -233 44 -222 88 -230 64 -12 215 -73 300 -121 l82 -46 172 122 c95 68 180
125 188 127 9 2 50 -32 100 -82 80 -81 84 -86 71 -108 -8 -12 -66 -91 -128
-176 -63 -84 -117 -160 -120 -167 -3 -7 5 -26 16 -43 38 -52 110 -214 135
-301 l24 -84 208 -43 c115 -23 210 -43 212 -43 1 0 2 -27 2 -60 l0 -60 100 0
c88 0 100 2 101 18 4 92 -1 256 -8 262 -4 5 -20 11 -34 13 -20 4 -150 30 -254
51 -5 2 -37 8 -70 15 -85 17 -101 26 -110 58 -3 15 -25 67 -47 115 l-40 86
139 189 c77 104 142 194 146 200 4 6 -83 101 -203 222 l-211 212 -89 -63 c-48
-35 -139 -99 -201 -142 l-112 -80 -41 22 c-23 12 -75 35 -116 51 -41 16 -78
35 -82 43 -6 11 -68 301 -84 393 -3 17 -9 33 -12 37 -8 8 -401 15 -509 10z"/>
<path d="M3410 5763 c-287 -27 -570 -216 -708 -475 -27 -48 -89 -208 -90 -231
-1 -4 -4 -26 -7 -50 -4 -23 -8 -66 -9 -94 l-3 -53 101 0 101 0 3 52 c14 258
195 504 443 602 444 175 928 -132 962 -609 l2 -40 102 -3 102 -3 -5 63 c-35
468 -413 830 -879 842 -44 1 -96 0 -115 -1z"/>
<path d="M3397 5250 c-151 -38 -278 -183 -294 -334 l-6 -56 102 0 c95 0 101 1
101 20 0 30 27 91 53 119 32 34 95 61 147 61 52 0 115 -27 147 -61 26 -28 53
-89 53 -119 0 -19 6 -20 101 -20 l102 0 -6 56 c-13 126 -104 250 -226 307 -55
26 -80 31 -151 34 -47 1 -102 -2 -123 -7z"/>
<path d="M1076 4635 c-70 -28 -123 -77 -162 -149 l-29 -51 0 -895 0 -895 99 0
99 0 2 860 c1 473 2 867 3 876 2 20 30 53 57 66 13 7 785 10 2350 11 2530 0
2377 3 2408 -52 7 -14 12 -87 13 -216 l1 -195 -503 -504 -503 -504 -402 402
c-221 220 -403 401 -405 401 -1 0 -268 -264 -591 -587 -323 -324 -595 -594
-604 -601 -14 -11 -69 41 -418 388 l-402 401 -604 -604 -604 -605 0 -418 c0
-231 0 -444 -1 -475 l0 -55 -246 0 c-149 1 -248 -3 -252 -9 -10 -17 -4 -348 8
-400 41 -178 181 -323 370 -381 68 -21 5413 -21 5482 0 119 37 222 111 297
216 17 25 43 81 57 125 23 72 26 97 27 256 0 96 -2 179 -5 185 -4 5 -109 9
-252 8 l-246 0 0 55 c-1 31 -1 530 0 1109 l0 1053 -102 -3 -102 -3 0 -1105 -1
-1105 -825 0 -825 -1 -102 -101 -102 -100 -561 -1 -561 0 -102 101 -102 101
-825 1 -825 0 -1 432 -1 431 503 503 504 504 402 -403 403 -402 605 605 605
605 402 -403 403 -402 605 605 605 605 -2 260 -3 260 -27 51 c-32 60 -93 118
-157 148 l-46 21 -2375 2 -2375 3 -59 -25z m1678 -3704 l101 -101 645 0 645 0
101 101 102 101 1018 0 c561 -1 1027 -1 1037 -1 17 -1 19 -9 15 -88 -2 -68 -9
-99 -27 -136 -34 -66 -85 -114 -156 -148 l-60 -29 -2685 3 -2685 2 -51 27
c-68 36 -136 113 -157 178 -9 29 -17 83 -17 120 0 64 2 69 23 72 12 2 478 2
1036 1 l1014 -1 101 -101z"/>
<path d="M1399 4152 c-12 -2 -15 -19 -13 -95 1 -51 2 -95 3 -98 0 -4 45 -6 99
-5 l97 1 0 100 0 100 -85 0 c-47 0 -92 -1 -101 -3z"/>
<path d="M1790 4063 c0 -51 -1 -96 -2 -100 -2 -5 43 -9 100 -9 l103 -1 -3 101
-3 101 -97 0 -98 1 0 -93z"/>
<path d="M2190 4054 l0 -101 94 1 c52 0 97 4 101 7 9 9 9 178 0 187 -3 4 -49
7 -101 7 l-94 0 0 -101z"/>
<path d="M3805 2936 c-2 -6 -3 -324 -2 -706 l2 -695 100 0 99 0 1 698 c0 385
-2 702 -5 706 -8 12 -192 9 -195 -3z"/>
<path d="M4209 2946 c-1 -1 -2 -317 -3 -703 -1 -464 2 -703 9 -704 28 -3 171
-5 181 -2 11 4 16 1402 5 1404 -6 2 -190 6 -192 5z"/>
<path d="M5418 2946 c0 -1 -2 -317 -3 -703 -1 -490 2 -703 9 -706 6 -2 51 -3
101 -2 l90 1 1 694 c0 382 -1 700 -3 706 -2 6 -40 10 -98 10 -52 0 -96 0 -97
0z"/>
<path d="M1789 2525 c0 -11 -1 -237 -2 -502 -2 -421 0 -482 13 -485 8 -2 53
-3 100 -3 l85 0 0 504 0 503 -98 2 c-91 1 -97 0 -98 -19z"/>
<path d="M2194 2541 c-7 -8 -4 -1001 4 -1002 32 -5 185 -2 189 4 3 5 6 660 3
957 l0 45 -96 0 c-52 0 -97 -2 -100 -4z"/>
<path d="M3409 2539 c-9 -5 -14 -983 -5 -997 2 -4 46 -7 98 -7 l93 0 3 503 c1
276 -1 502 -5 503 -34 4 -177 3 -184 -2z"/>
<path d="M4618 2539 c-9 -6 -13 -982 -4 -997 3 -6 129 -8 184 -3 9 1 12 108
12 501 0 275 -3 500 -7 501 -44 4 -177 3 -185 -2z"/>
<path d="M5020 2542 c-12 -4 -14 -1001 -2 -1003 33 -5 174 -4 183 1 7 5 11
163 12 503 2 436 0 497 -13 498 -51 3 -172 3 -180 1z"/>
<path d="M1386 1843 c1 -164 2 -300 3 -303 2 -8 179 -5 188 4 4 4 8 140 9 302
l0 294 -100 0 -101 0 1 -297z"/>
<path d="M2594 1840 c0 -264 2 -300 15 -301 72 -6 174 -2 179 6 4 6 7 142 7
303 l0 292 -101 0 -100 0 0 -300z"/>
<path d="M2995 1845 c1 -162 4 -298 9 -302 4 -4 50 -8 101 -8 l93 0 -1 303 0
302 -101 0 -101 0 0 -295z"/>
</g>
</svg>
